<?xml version="1.0" encoding="UTF-8"?>
<svg id="Camada_1" xmlns="http://www.w3.org/2000/svg" version="1.1" xmlns:xlink="http://www.w3.org/1999/xlink" viewBox="0 0 512 512">
  <!-- Generator: Adobe Illustrator 29.8.3, SVG Export Plug-In . SVG Version: 2.1.1 Build 3)  -->
  <defs>
    <style>
      .st0 {
        fill: #fff;
        fill-rule: evenodd;
      }

      .st1 {
        fill: url(#Gradiente_sem_nome_4);
      }
    </style>
    <linearGradient id="Gradiente_sem_nome_4" data-name="Gradiente sem nome 4" x1="-327.36" y1=".16" x2="-326.36" y2="1.16" gradientTransform="translate(167608 -82) scale(512)" gradientUnits="userSpaceOnUse">
      <stop offset="0" stop-color="#0f6fbe"/>
      <stop offset="1" stop-color="#0fffbf"/>
    </linearGradient>
  </defs>
  <rect class="st1" y="0" width="512" height="512" rx="115" ry="115"/>
  <path class="st0" d="M419.94,256c0,2.2-.05,4.4-.14,6.6-.1,2.19-.25,4.38-.44,6.56-.38,4.35-.95,8.68-1.71,12.96-.38,2.14-.81,4.27-1.28,6.38-.23,1.06-.48,2.12-.74,3.17-.18.73-.37,1.45-.56,2.18-.18.72-.38,1.44-.58,2.16h0c-.2.73-.41,1.44-.62,2.16h0c-.22.72-.43,1.44-.66,2.15-.71,2.31-1.49,4.59-2.32,6.86h-.01c-.09.16-.19.32-.29.48.1-.14.19-.28.27-.43-3.14,8.55-7.07,16.81-11.76,24.67-.32.53-.63,1.05-.95,1.57-.57.93-1.15,1.85-1.74,2.77-1.18,1.83-2.41,3.64-3.67,5.42-.91,1.28-1.84,2.54-2.79,3.79-1.27,1.69-2.59,3.35-3.94,4.98-.45.54-.9,1.08-1.36,1.62-1.98,2.32-4.02,4.58-6.14,6.76-.71.73-1.41,1.45-2.13,2.17-4.77,4.76-9.84,9.17-15.16,13.22-.66.5-1.33,1-2.01,1.5-1.34.99-2.7,1.95-4.08,2.9-.68.47-1.37.94-2.07,1.4h-.01c-1.67,1.1-3.35,2.17-5.06,3.21-2.29,1.37-4.61,2.69-6.96,3.95-1.76.94-3.53,1.85-5.33,2.72-19.77,9.57-41.63,14.78-64.06,14.78H122.99v-27.82c0-1.98-.01-3.89-.03-5.73-.05-5.5-.14-10.41-.14-14.78,0-.8.01-1.59.01-2.37v-.13c0-.34.01-.68.01-1.01v-.13c0-.34.02-.66.02-.99v-.12c.01-.33.02-.65.03-.97v-.12c.02-.32.03-.64.04-.95-.01-.03,0-.07,0-.11.01-.31.03-.62.04-.93v-.1c.02-.31.04-.61.05-.91.02-.42.05-.83.08-1.23.39-5.26,1.24-9.43,3.01-12.71.27-.5.57-.99.89-1.45h0c.13-.19.26-.37.4-.54h0c.27-.36.56-.7.85-1.03h0c.16-.17.31-.33.47-.49,5.42-5.42,15.71-7.24,35.08-7.24h107.48s.31.01.31.01c.36,0,.71-.01,1.06-.02.08-.01.16-.01.24-.01.63,0,1.25-.03,1.87-.07h.06c.13,0,.27-.01.4-.02.14-.02.29-.03.42-.03h.05c.34-.02.68-.04,1.02-.08.1-.01.2-.02.31-.03.1-.01.2-.01.3-.03.69-.05,1.37-.13,2.06-.21.11-.01.22-.03.33-.05h.03c.12-.01.25-.03.38-.05.05-.01.1-.02.16-.02,1.46-.19,2.92-.44,4.36-.74.78-.16,1.56-.33,2.33-.53.07-.01.15-.03.22-.05.23-.05.46-.11.69-.18.2-.04.39-.1.58-.15.43-.1.85-.22,1.26-.35.18-.05.37-.11.56-.17.18-.05.37-.11.55-.17.59-.17,1.17-.36,1.75-.57.29-.09.57-.19.85-.29.15-.05.3-.11.44-.16.01,0,.03-.01.04-.01.23-.09.45-.17.68-.26.04-.01.08-.03.11-.04.39-.14.77-.29,1.15-.45.17-.07.34-.14.5-.21.2-.08.39-.16.58-.24.36-.14.72-.29,1.07-.46.08-.04.15-.07.23-.1.02-.01.04-.02.06-.03.37-.15.74-.32,1.11-.51.06-.03.11-.06.17-.08.1-.05.2-.1.3-.14.11-.05.21-.1.3-.15.24-.11.47-.22.7-.35.16-.07.31-.15.46-.22.07-.04.14-.07.21-.11.3-.15.6-.31.89-.47.07-.04.15-.08.23-.12.44-.24.87-.48,1.3-.72.09-.05.17-.1.26-.15.14-.07.28-.15.41-.24.15-.09.29-.17.44-.26.06-.04.12-.07.18-.11.02-.01.04-.02.06-.04.16-.09.33-.19.49-.3.12-.06.24-.14.36-.22.13-.08.25-.15.37-.24.64-.38,1.26-.78,1.87-1.21.46-.3.92-.62,1.38-.95.21-.16.42-.32.63-.47.02-.01.03-.02.04-.03.31-.21.62-.44.92-.69.01,0,.01,0,.02-.02.56-.41,1.12-.85,1.67-1.32.12-.08.23-.18.35-.28.07-.05.15-.11.22-.18.19-.15.37-.31.56-.47.06-.06.13-.11.2-.17.16-.14.32-.28.48-.42.33-.27.65-.56.97-.86.15-.13.3-.27.45-.42.18-.16.37-.33.55-.51.43-.4.86-.82,1.28-1.25.02-.01.04-.03.06-.06.02-.01.05-.04.07-.06.25-.24.49-.49.72-.74.02-.02.04-.05.07-.07.12-.11.22-.22.32-.33.37-.38.73-.77,1.09-1.17.11-.11.21-.23.3-.35.27-.28.51-.56.76-.85.15-.18.31-.36.45-.54.2-.22.39-.45.58-.68h0c.24-.31.49-.62.74-.93s.49-.62.72-.93c.27-.34.52-.68.77-1.02.24-.31.46-.62.68-.94.27-.38.54-.76.79-1.14.04-.06.08-.12.12-.18.21-.3.4-.59.59-.89.06-.1.13-.2.2-.31.04-.05.07-.09.09-.14.36-.57.71-1.14,1.06-1.72.21-.34.41-.68.61-1.03.18-.31.35-.62.52-.93.27-.5.54-1,.81-1.51.07-.13.14-.26.2-.39.25-.48.49-.95.72-1.44.04-.08.08-.17.12-.26,0-.04.03-.07.05-.1.17-.37.34-.74.51-1.1.05-.14.11-.27.18-.41.3-.67.59-1.35.86-2.04.17-.4.33-.8.47-1.21.12-.28.22-.56.33-.85.17-.47.34-.94.5-1.42,0-.02.01-.03.02-.05,0-.03.01-.05.02-.07,0-.02.01-.03.01-.05.17-.5.34-1,.49-1.5,1.94-6.24,2.99-12.88,2.99-19.75,0-7.45-1.23-14.62-3.49-21.32-.39-1.15-.81-2.3-1.27-3.43-.15-.37-.3-.75-.46-1.12h0c-.16-.39-.33-.78-.5-1.16-.05-.11-.1-.22-.15-.33-.04-.09-.08-.17-.12-.25-.04-.11-.09-.22-.15-.33-.02-.05-.05-.1-.07-.15-.34-.73-.69-1.46-1.06-2.17h0c-.37-.73-.74-1.44-1.14-2.13-.02-.04-.04-.08-.06-.11-.3-.54-.61-1.07-.92-1.59-.07-.13-.15-.26-.23-.39h0c-.17-.28-.34-.55-.51-.82-.11-.18-.22-.36-.34-.54-.14-.22-.29-.45-.44-.67-.43-.67-.89-1.34-1.35-1.99h0c-.38-.55-.78-1.09-1.19-1.62-.07-.1-.15-.21-.23-.31-.08-.1-.16-.21-.24-.31-.03-.04-.06-.08-.1-.12-.12-.18-.26-.35-.39-.52-.25-.31-.5-.63-.76-.93h0c-.51-.63-1.03-1.24-1.56-1.83-.17-.2-.34-.4-.53-.59h0c-.71-.8-1.44-1.57-2.2-2.32-.1-.1-.19-.19-.29-.28-.09-.1-.19-.19-.28-.28-.04-.04-.08-.08-.13-.12-.05-.06-.11-.11-.17-.17-.16-.16-.33-.32-.5-.48-.29-.29-.59-.56-.88-.82-.03-.03-.07-.06-.11-.1-.07-.06-.14-.12-.2-.18-.16-.15-.32-.29-.48-.43-.55-.51-1.12-.99-1.69-1.45-.06-.06-.11-.1-.17-.14-.35-.3-.7-.59-1.06-.87-.52-.42-1.06-.82-1.6-1.21-.07-.06-.14-.11-.21-.16-.08-.07-.17-.13-.25-.18-.04-.03-.08-.06-.12-.09-.17-.12-.33-.24-.5-.36-.39-.29-.79-.57-1.19-.83-.01,0-.02-.01-.03-.02-.24-.16-.48-.33-.72-.48-.23-.16-.47-.31-.7-.46-.29-.19-.58-.37-.87-.55-.13-.08-.25-.16-.38-.24-.46-.27-.92-.54-1.37-.81h0c-.39-.23-.78-.45-1.16-.66-.08-.05-.16-.09-.24-.14-.23-.12-.45-.24-.67-.35-.01-.01-.02-.02-.03-.02-.11-.06-.22-.11-.32-.17-1.02-.53-2.04-1.03-3.08-1.51-.32-.15-.64-.3-.96-.43-.37-.17-.75-.33-1.12-.48-.75-.32-1.5-.62-2.26-.9-.12-.05-.25-.1-.38-.14-.19-.07-.37-.14-.56-.21-.27-.09-.54-.18-.8-.28-.09-.02-.17-.05-.25-.08-.21-.08-.42-.14-.64-.21-.06-.02-.11-.04-.16-.06-.16-.05-.32-.1-.48-.15-.06-.02-.13-.04-.19-.06h0s-.03-.02-.05-.02c-.13-.04-.27-.08-.4-.12-.24-.08-.48-.15-.72-.22-.13-.04-.27-.08-.4-.11-.26-.08-.52-.15-.78-.22h-.01c-.13-.04-.27-.08-.39-.11-.27-.08-.53-.14-.8-.21-.4-.11-.8-.2-1.2-.29-.21-.05-.43-.1-.65-.14-.19-.05-.37-.09-.56-.13-.12-.02-.24-.05-.37-.07-.28-.06-.56-.12-.84-.17-.04-.01-.08-.02-.11-.02-.33-.07-.67-.13-1-.19-.04,0-.08-.01-.12-.02-.02,0-.04,0-.06-.01-.4-.07-.79-.13-1.18-.19-.21-.03-.42-.06-.63-.09-.2-.04-.4-.07-.6-.09-.14-.02-.28-.04-.42-.05-.28-.04-.55-.07-.83-.1-.38-.06-.76-.1-1.15-.13-.25-.02-.51-.04-.76-.06-.62-.06-1.25-.1-1.88-.14-.14-.01-.28-.01-.42-.02h-.02c-.28-.02-.55-.03-.83-.04-.1-.01-.19-.01-.29-.01-.05,0-.09,0-.14-.01-.04-.01-.07-.01-.11,0-.03,0-.07,0-.1-.01h-.38c-.09,0-.18-.01-.26-.01-.22-.01-.43-.01-.65-.01-.21,0-.42,0-.64,0h-66.43s0-.02,0-.04v.06h0v22.06c0,32.34-1.28,49.85-10.87,59.33-.5.49-1.01.96-1.55,1.4-1.08.9-2.25,1.71-3.52,2.44-.95.55-1.95,1.06-3.02,1.54-.36.16-.72.31-1.09.46h-.01c-1.13.46-2.32.87-3.58,1.25-1.68.51-3.48.96-5.4,1.34-.96.2-1.95.38-2.98.55-1.02.17-2.08.32-3.18.46-.55.07-1.1.14-1.66.21-11.25,1.3-25.91,1.46-45,1.46V107.34h149.25c.32,0,.64,0,.96.01,1.92.03,3.83.09,5.74.18,1.26.07,2.53.15,3.79.24.63.05,1.25.1,1.88.16,1.25.11,2.51.24,3.75.38.26.03.53.06.79.09-.61.03-1.21.07-1.81.11.61-.03,1.22-.07,1.84-.1h.01c19.66,2.37,38.13,8.56,54.65,17.79,1.18.66,2.35,1.34,3.51,2.03,1.16.69,2.31,1.4,3.45,2.12,4.2,2.67,8.27,5.54,12.17,8.6.04.03.08.06.11.08.66.53,1.31,1.05,1.96,1.57.69.56,1.37,1.12,2.04,1.69.05.04.1.08.15.12.62.53,1.24,1.06,1.85,1.59,0,.02.01.02.03.03.65.57,1.3,1.15,1.95,1.74.65.59,1.3,1.19,1.94,1.79.96.9,1.92,1.82,2.86,2.75.94.93,1.86,1.87,2.78,2.83,1.22,1.27,2.41,2.57,3.59,3.88.88.98,1.74,1.98,2.6,2.99,1.44,1.7,2.84,3.44,4.21,5.2,1.36,1.77,2.68,3.57,3.97,5.39.85,1.22,1.69,2.46,2.51,3.7.37.57.74,1.13,1.1,1.69.44.7.88,1.4,1.32,2.11,2.17,3.53,4.2,7.16,6.08,10.87.75,1.49,1.48,2.99,2.18,4.5.01.01.01.02.02.03,1.96,4.24,3.73,8.58,5.29,13.02.01.02.01.03.02.04.33.96.66,1.92.98,2.88.3.95.61,1.9.9,2.86-.5-.89-1.11-1.75-1.84-2.57.73.84,1.35,1.71,1.85,2.61t.01.01h.01c.26.86.52,1.73.77,2.6.2.7.4,1.4.59,2.1.01.04.02.08.03.12.15.55.29,1.1.43,1.66.77,2.97,1.44,5.97,2.02,9.01.1.52.2,1.03.29,1.55.1.55.2,1.09.29,1.63.11.65.22,1.31.31,1.96.03.12.05.25.06.37.06.38.12.77.17,1.16.09.63.18,1.26.26,1.88.1.74.19,1.48.27,2.23.14,1.16.26,2.33.37,3.49.08.81.14,1.62.21,2.44,0,.05,0,.11.01.16.07.93.13,1.86.18,2.8.05.91.1,1.82.13,2.74v.08c.04.94.07,1.88.08,2.83.02.94.03,1.89.03,2.84Z"/>
</svg>